# Blender v2.78 (sub 0) OBJ File: ''
# www.blender.org
mtllib batterij.mtl
o Cube
v 0.917482 -0.938891 -0.381195
v 0.917482 -0.938891 0.618805
v -1.082518 -0.938891 0.618805
v -1.082518 -0.938891 -0.381195
v 0.917482 1.061109 -0.381195
v 0.911536 1.082085 0.407836
v -1.088464 1.078765 0.407836
v -1.082518 1.061109 -0.381195
v -1.082519 0.863029 0.618805
v 0.917481 0.863029 0.618805
vn 0.0000 -1.0000 0.0000
vn -0.0008 0.9997 -0.0245
vn 1.0000 0.0015 0.0003
vn -0.0000 -0.0000 1.0000
vn -1.0000 -0.0015 -0.0003
vn 0.0000 0.0000 -1.0000
vn -0.0006 0.6964 0.7176
usemtl Material
s off
f 1//1 2//1 3//1 4//1
f 5//2 8//2 7//2 6//2
f 1//3 5//3 6//3 10//3 2//3
f 2//4 10//4 9//4 3//4
f 3//5 9//5 7//5 8//5 4//5
f 5//6 1//6 4//6 8//6
f 9//7 10//7 6//7 7//7
