# Blender v2.78 (sub 0) OBJ File: ''
# www.blender.org
mtllib sdkaart.mtl
o Cube_Cube.001
v -2.280841 -3.108675 0.164141
v -2.280841 0.192122 0.164141
v -2.280841 -3.108675 -0.164141
v -2.280841 0.192122 -0.164141
v 2.440733 -3.108675 0.164141
v 2.440733 0.192122 0.164141
v 2.440733 -3.108675 -0.164141
v 2.440733 0.192122 -0.164141
v -2.273427 0.192122 0.164141
v -2.273427 0.192122 -0.164141
v 2.294095 0.192122 -0.164141
v 2.294095 0.192122 0.164141
v -2.273427 0.751397 0.164141
v -2.273427 0.751397 -0.164141
v 2.294095 0.751397 -0.164141
v 2.294095 0.751397 0.164141
v -2.196080 0.751397 0.164141
v -2.196080 0.751397 -0.164141
v 2.294095 0.751397 -0.164141
v 2.294095 0.751397 0.164141
v -2.196080 1.054834 0.164141
v -2.196080 1.054834 -0.164141
v 2.294095 1.054834 -0.164141
v 2.294095 1.054834 0.164141
v -2.291276 1.054834 0.164141
v -2.291276 1.054834 -0.164141
v 2.294095 1.054834 -0.164141
v 2.294095 1.054834 0.164141
v -2.291276 1.501063 0.164141
v -2.291276 1.501063 -0.164141
v 2.294095 1.501063 -0.164141
v 2.294095 1.501063 0.164141
v -2.291276 1.501063 0.164141
v -2.291276 1.501063 -0.164141
v 2.430939 1.501063 -0.164141
v 2.430939 1.501063 0.164141
v -2.291276 2.220981 0.164141
v -2.291276 2.220981 -0.164141
v 2.430939 2.220981 -0.164141
v 2.430939 2.220981 0.164141
v -1.613006 2.899251 0.164141
v -1.613006 2.899251 -0.164141
v 2.430939 2.899251 -0.164141
v 2.430939 2.899251 0.164141
v -1.451428 3.059893 0.164141
v -1.451428 3.059893 -0.164141
v 2.269361 3.059893 -0.164141
v 2.269361 3.059893 0.164141
vn -1.0000 0.0000 0.0000
vn 0.0000 0.0000 -1.0000
vn 1.0000 0.0000 0.0000
vn 0.0000 0.0000 1.0000
vn 0.0000 -1.0000 0.0000
vn 0.0000 1.0000 0.0000
vn -0.7071 0.7071 0.0000
vn 0.7051 0.7092 0.0000
vn -0.7051 0.7092 0.0000
usemtl Material.001
s off
f 1//1 2//1 4//1 3//1
f 3//2 4//2 8//2 7//2
f 7//3 8//3 6//3 5//3
f 5//4 6//4 2//4 1//4
f 3//5 7//5 5//5 1//5
f 8//4 4//4 10//4 11//4
f 11//2 10//2 14//2 15//2
f 4//6 2//6 9//6 10//6
f 2//2 6//2 12//2 9//2
f 6//6 8//6 11//6 12//6
f 15//4 14//4 18//4 19//4
f 12//3 11//3 15//3 16//3
f 9//4 12//4 16//4 13//4
f 10//1 9//1 13//1 14//1
f 19//2 18//2 22//2 23//2
f 16//4 15//4 19//4 20//4
f 13//4 16//4 20//4 17//4
f 14//6 13//6 17//6 18//6
f 23//4 22//4 26//4 27//4
f 20//3 19//3 23//3 24//3
f 17//4 20//4 24//4 21//4
f 18//1 17//1 21//1 22//1
f 27//2 26//2 30//2 31//2
f 24//4 23//4 27//4 28//4
f 21//4 24//4 28//4 25//4
f 22//5 21//5 25//5 26//5
f 31//4 30//4 34//4 35//4
f 28//3 27//3 31//3 32//3
f 25//4 28//4 32//4 29//4
f 26//1 25//1 29//1 30//1
f 35//2 34//2 38//2 39//2
f 32//5 31//5 35//5 36//5
f 29//2 32//2 36//2 33//2
f 30//4 29//4 33//4 34//4
f 39//2 38//2 42//2 43//2
f 36//3 35//3 39//3 40//3
f 33//4 36//4 40//4 37//4
f 34//1 33//1 37//1 38//1
f 43//2 42//2 46//2 47//2
f 40//3 39//3 43//3 44//3
f 37//4 40//4 44//4 41//4
f 38//7 37//7 41//7 42//7
f 47//6 46//6 45//6 48//6
f 44//8 43//8 47//8 48//8
f 41//4 44//4 48//4 45//4
f 42//9 41//9 45//9 46//9
