# Blender v2.79 (sub 0) OBJ File: 'arrow.blend'
# www.blender.org
mtllib arrow.mtl
o Cylinder
v -0.055494 0.810050 -0.134939
v -0.055494 1.125838 -0.134939
v -0.024690 0.810050 -0.131905
v -0.024690 1.125838 -0.131905
v 0.004930 0.810050 -0.122920
v 0.004930 1.125838 -0.122920
v 0.032227 0.810050 -0.108329
v 0.032227 1.125838 -0.108329
v 0.056154 0.810050 -0.088693
v 0.056154 1.125838 -0.088693
v 0.075790 0.810050 -0.064766
v 0.075790 1.125838 -0.064766
v 0.090381 0.810050 -0.037468
v 0.090381 1.125838 -0.037468
v 0.099366 0.810050 -0.007848
v 0.099366 1.125838 -0.007848
v 0.102400 0.810050 0.022955
v 0.102400 1.125838 0.022955
v 0.099366 0.810050 0.053759
v 0.099366 1.125838 0.053759
v 0.090381 0.810050 0.083379
v 0.090381 1.125838 0.083379
v 0.075790 0.810050 0.110676
v 0.075790 1.125838 0.110676
v 0.056154 0.810050 0.134603
v 0.056154 1.125838 0.134603
v 0.032227 0.810050 0.154239
v 0.032227 1.125838 0.154239
v 0.004929 0.810050 0.168830
v 0.004929 1.125838 0.168830
v -0.024690 0.810050 0.177815
v -0.024690 1.125838 0.177815
v -0.055494 0.810050 0.180849
v -0.055494 1.125838 0.180849
v -0.086297 0.810050 0.177815
v -0.086297 1.125838 0.177815
v -0.115917 0.810050 0.168830
v -0.115917 1.125838 0.168830
v -0.143215 0.810050 0.154239
v -0.143215 1.125838 0.154239
v -0.167142 0.810050 0.134603
v -0.167142 1.125838 0.134603
v -0.186778 0.810050 0.110676
v -0.186778 1.125838 0.110676
v -0.201369 0.810050 0.083379
v -0.201369 1.125838 0.083379
v -0.210354 0.810050 0.053759
v -0.210354 1.125838 0.053759
v -0.213388 0.810050 0.022955
v -0.213388 1.125838 0.022955
v -0.210354 0.810050 -0.007848
v -0.210354 1.125838 -0.007848
v -0.201369 0.810050 -0.037468
v -0.201369 1.125838 -0.037468
v -0.186778 0.810050 -0.064766
v -0.186778 1.125838 -0.064766
v -0.167142 0.810050 -0.088693
v -0.167142 1.125838 -0.088693
v -0.143215 0.810050 -0.108329
v -0.143215 1.125838 -0.108329
v -0.115917 0.810050 -0.122920
v -0.115917 1.125838 -0.122920
v -0.086297 0.810050 -0.131905
v -0.086297 1.125838 -0.131905
v -0.024690 1.650856 -0.131905
v -0.055494 1.650856 -0.134939
v 0.004929 1.650856 -0.122920
v 0.032227 1.650856 -0.108329
v 0.056154 1.650856 -0.088693
v 0.075790 1.650856 -0.064766
v 0.090381 1.650856 -0.037468
v 0.099366 1.650856 -0.007848
v 0.102400 1.650856 0.022955
v 0.099366 1.650856 0.053759
v 0.090381 1.650856 0.083379
v 0.075790 1.650856 0.110676
v 0.056154 1.650856 0.134603
v 0.032227 1.650856 0.154239
v 0.004929 1.650856 0.168830
v -0.024690 1.650856 0.177815
v -0.055494 1.650856 0.180849
v -0.086298 1.650856 0.177815
v -0.115917 1.650856 0.168830
v -0.143215 1.650856 0.154239
v -0.167142 1.650856 0.134603
v -0.186778 1.650856 0.110676
v -0.201369 1.650856 0.083379
v -0.210354 1.650856 0.053759
v -0.213388 1.650856 0.022955
v -0.210354 1.650856 -0.007848
v -0.201369 1.650856 -0.037468
v -0.186778 1.650856 -0.064766
v -0.167142 1.650856 -0.088693
v -0.143215 1.650856 -0.108329
v -0.115917 1.650856 -0.122920
v -0.086297 1.650856 -0.131905
vn 0.0980 0.0000 -0.9952
vn 0.2903 0.0000 -0.9569
vn 0.4714 0.0000 -0.8819
vn 0.6344 0.0000 -0.7730
vn 0.7730 0.0000 -0.6344
vn 0.8819 0.0000 -0.4714
vn 0.9569 0.0000 -0.2903
vn 0.9952 0.0000 -0.0980
vn 0.9952 0.0000 0.0980
vn 0.9569 0.0000 0.2903
vn 0.8819 0.0000 0.4714
vn 0.7730 0.0000 0.6344
vn 0.6344 0.0000 0.7730
vn 0.4714 0.0000 0.8819
vn 0.2903 0.0000 0.9569
vn 0.0980 0.0000 0.9952
vn -0.0980 0.0000 0.9952
vn -0.2903 0.0000 0.9569
vn -0.4714 0.0000 0.8819
vn -0.6344 0.0000 0.7730
vn -0.7730 0.0000 0.6344
vn -0.8819 0.0000 0.4714
vn -0.9569 0.0000 0.2903
vn -0.9952 0.0000 0.0980
vn -0.9952 0.0000 -0.0980
vn -0.9569 0.0000 -0.2903
vn -0.8819 0.0000 -0.4714
vn -0.7730 0.0000 -0.6344
vn -0.6344 0.0000 -0.7730
vn -0.4714 0.0000 -0.8819
vn -0.2903 0.0000 -0.9569
vn -0.0980 0.0000 -0.9952
vn 0.0000 -1.0000 -0.0000
vn 0.0000 1.0000 0.0000
usemtl Material.001
s off
f 1//1 2//1 4//1 3//1
f 3//2 4//2 6//2 5//2
f 5//3 6//3 8//3 7//3
f 7//4 8//4 10//4 9//4
f 9//5 10//5 12//5 11//5
f 11//6 12//6 14//6 13//6
f 13//7 14//7 16//7 15//7
f 15//8 16//8 18//8 17//8
f 17//9 18//9 20//9 19//9
f 19//10 20//10 22//10 21//10
f 21//11 22//11 24//11 23//11
f 23//12 24//12 26//12 25//12
f 25//13 26//13 28//13 27//13
f 27//14 28//14 30//14 29//14
f 29//15 30//15 32//15 31//15
f 31//16 32//16 34//16 33//16
f 33//17 34//17 36//17 35//17
f 35//18 36//18 38//18 37//18
f 37//19 38//19 40//19 39//19
f 39//20 40//20 42//20 41//20
f 41//21 42//21 44//21 43//21
f 43//22 44//22 46//22 45//22
f 45//23 46//23 48//23 47//23
f 47//24 48//24 50//24 49//24
f 49//25 50//25 52//25 51//25
f 51//26 52//26 54//26 53//26
f 53//27 54//27 56//27 55//27
f 55//28 56//28 58//28 57//28
f 57//29 58//29 60//29 59//29
f 59//30 60//30 62//30 61//30
f 16//7 14//7 71//7 72//7
f 61//31 62//31 64//31 63//31
f 63//32 64//32 2//32 1//32
f 1//33 3//33 5//33 7//33 9//33 11//33 13//33 15//33 17//33 19//33 21//33 23//33 25//33 27//33 29//33 31//33 33//33 35//33 37//33 39//33 41//33 43//33 45//33 47//33 49//33 51//33 53//33 55//33 57//33 59//33 61//33 63//33
f 65//34 66//34 96//34 95//34 94//34 93//34 92//34 91//34 90//34 89//34 88//34 87//34 86//34 85//34 84//34 83//34 82//34 81//34 80//34 79//34 78//34 77//34 76//34 75//34 74//34 73//34 72//34 71//34 70//34 69//34 68//34 67//34
f 34//16 32//16 80//16 81//16
f 52//25 50//25 89//25 90//25
f 8//3 6//3 67//3 68//3
f 26//12 24//12 76//12 77//12
f 44//21 42//21 85//21 86//21
f 62//30 60//30 94//30 95//30
f 18//8 16//8 72//8 73//8
f 36//17 34//17 81//17 82//17
f 54//26 52//26 90//26 91//26
f 10//4 8//4 68//4 69//4
f 28//13 26//13 77//13 78//13
f 46//22 44//22 86//22 87//22
f 64//31 62//31 95//31 96//31
f 20//9 18//9 73//9 74//9
f 38//18 36//18 82//18 83//18
f 56//27 54//27 91//27 92//27
f 12//5 10//5 69//5 70//5
f 30//14 28//14 78//14 79//14
f 48//23 46//23 87//23 88//23
f 4//1 2//1 66//1 65//1
f 2//32 64//32 96//32 66//32
f 22//10 20//10 74//10 75//10
f 40//19 38//19 83//19 84//19
f 58//28 56//28 92//28 93//28
f 14//6 12//6 70//6 71//6
f 32//15 30//15 79//15 80//15
f 50//24 48//24 88//24 89//24
f 6//2 4//2 65//2 67//2
f 24//11 22//11 75//11 76//11
f 42//20 40//20 84//20 85//20
f 60//29 58//29 93//29 94//29
o Cone
v -0.058364 0.825112 -0.384246
v -0.052624 0.010730 0.022955
v -0.137803 0.824552 -0.376422
v -0.214189 0.824014 -0.353250
v -0.284587 0.823518 -0.315620
v -0.346291 0.823083 -0.264979
v -0.396931 0.822726 -0.203274
v -0.434559 0.822461 -0.132874
v -0.457731 0.822297 -0.056486
v -0.465555 0.822242 0.022955
v -0.457731 0.822297 0.102396
v -0.434559 0.822461 0.178784
v -0.396931 0.822726 0.249184
v -0.346291 0.823083 0.310890
v -0.284587 0.823518 0.361531
v -0.214189 0.824014 0.399160
v -0.137802 0.824552 0.422332
v -0.058363 0.825112 0.430157
v 0.021076 0.825672 0.422332
v 0.097462 0.826210 0.399160
v 0.167860 0.826706 0.361531
v 0.229564 0.827141 0.310890
v 0.280204 0.827498 0.249184
v 0.317832 0.827763 0.178784
v 0.341004 0.827926 0.102396
v 0.348828 0.827982 0.022955
v 0.341003 0.827926 -0.056486
v 0.317832 0.827763 -0.132874
v 0.280203 0.827498 -0.203274
v 0.229564 0.827141 -0.264980
v 0.167859 0.826706 -0.315620
v 0.097461 0.826210 -0.353250
v 0.021075 0.825672 -0.376422
vn -0.0846 -0.4461 -0.8910
vn -0.2567 -0.4473 -0.8567
vn -0.4189 -0.4485 -0.7896
vn -0.5648 -0.4495 -0.6921
vn -0.6889 -0.4504 -0.5680
vn -0.7864 -0.4510 -0.4220
vn -0.8536 -0.4515 -0.2599
vn -0.8878 -0.4518 -0.0878
vn -0.8878 -0.4518 0.0878
vn -0.8536 -0.4515 0.2599
vn -0.7864 -0.4510 0.4220
vn -0.6889 -0.4504 0.5680
vn -0.5648 -0.4495 0.6921
vn -0.4189 -0.4485 0.7896
vn -0.2567 -0.4473 0.8567
vn -0.0846 -0.4461 0.8910
vn 0.0909 -0.4449 0.8910
vn 0.2630 -0.4436 0.8567
vn 0.4252 -0.4425 0.7896
vn 0.5711 -0.4415 0.6921
vn 0.6952 -0.4406 0.5680
vn 0.7927 -0.4399 0.4220
vn 0.8599 -0.4394 0.2599
vn 0.8941 -0.4392 0.0878
vn 0.8941 -0.4392 -0.0878
vn 0.8599 -0.4394 -0.2599
vn 0.7927 -0.4399 -0.4220
vn 0.6952 -0.4406 -0.5680
vn 0.5711 -0.4415 -0.6921
vn 0.4252 -0.4425 -0.7896
vn 0.2630 -0.4436 -0.8567
vn 0.0909 -0.4449 -0.8910
vn -0.0070 1.0000 -0.0000
usemtl Material.002
s off
f 97//35 98//35 99//35
f 99//36 98//36 100//36
f 100//37 98//37 101//37
f 101//38 98//38 102//38
f 102//39 98//39 103//39
f 103//40 98//40 104//40
f 104//41 98//41 105//41
f 105//42 98//42 106//42
f 106//43 98//43 107//43
f 107//44 98//44 108//44
f 108//45 98//45 109//45
f 109//46 98//46 110//46
f 110//47 98//47 111//47
f 111//48 98//48 112//48
f 112//49 98//49 113//49
f 113//50 98//50 114//50
f 114//51 98//51 115//51
f 115//52 98//52 116//52
f 116//53 98//53 117//53
f 117//54 98//54 118//54
f 118//55 98//55 119//55
f 119//56 98//56 120//56
f 120//57 98//57 121//57
f 121//58 98//58 122//58
f 122//59 98//59 123//59
f 123//60 98//60 124//60
f 124//61 98//61 125//61
f 125//62 98//62 126//62
f 126//63 98//63 127//63
f 127//64 98//64 128//64
f 128//65 98//65 129//65
f 129//66 98//66 97//66
f 97//67 99//67 100//67 101//67 102//67 103//67 104//67 105//67 106//67 107//67 108//67 109//67 110//67 111//67 112//67 113//67 114//67 115//67 116//67 117//67 118//67 119//67 120//67 121//67 122//67 123//67 124//67 125//67 126//67 127//67 128//67 129//67
