# Blender v2.79 (sub 0) OBJ File: 'shedNotJoinedColored2.blend'
# www.blender.org
mtllib shed2.mtl
o Cube.004
v -1.283426 3.278195 2.288491
v -1.229735 3.424642 2.288491
v -1.283426 3.278195 -2.303578
v -1.229735 3.424642 -2.303578
v 0.804124 2.512851 2.288491
v 0.857815 2.659298 2.288491
v 0.804124 2.512851 -2.303578
v 0.857815 2.659298 -2.303578
vn -0.9389 0.3442 0.0000
vn -0.0000 0.0000 -1.0000
vn 0.9389 -0.3442 0.0000
vn -0.0000 0.0000 1.0000
vn -0.3442 -0.9389 0.0000
vn 0.3442 0.9389 0.0000
usemtl Material.002
s off
f 1//1 2//1 4//1 3//1
f 3//2 4//2 8//2 7//2
f 7//3 8//3 6//3 5//3
f 5//4 6//4 2//4 1//4
f 3//5 7//5 5//5 1//5
f 8//6 4//6 2//6 6//6
o Cube.002
v -0.997955 3.200684 -2.029566
v -0.997955 -0.032565 -2.029566
v -0.997955 3.200684 -1.775458
v -0.997955 -0.032565 -1.775458
v 0.734816 2.554034 -2.029566
v 0.734816 -0.032565 -2.029566
v 0.734816 2.554034 -1.775458
v 0.734816 -0.032565 -1.775458
vn -1.0000 0.0000 0.0000
vn -0.0000 0.0000 1.0000
vn 1.0000 0.0000 0.0000
vn 0.0000 0.0000 -1.0000
vn 0.3496 0.9369 0.0000
vn 0.0000 -1.0000 0.0000
usemtl Material.001
s off
f 9//7 10//7 12//7 11//7
f 11//8 12//8 16//8 15//8
f 15//9 16//9 14//9 13//9
f 13//10 14//10 10//10 9//10
f 11//11 15//11 13//11 9//11
f 16//12 12//12 10//12 14//12
o Cube.001
v -0.859012 3.199904 -2.025485
v -0.859012 0.041418 -2.025485
v -0.859012 3.199904 2.028586
v -0.859012 0.041418 2.028586
v -1.128727 3.199904 -2.025485
v -1.128727 0.041418 -2.025485
v -1.128727 3.199904 2.028586
v -1.128727 0.041418 2.028586
vn 1.0000 0.0000 0.0000
vn 0.0000 0.0000 1.0000
vn -1.0000 0.0000 0.0000
vn 0.0000 0.0000 -1.0000
vn 0.0000 1.0000 0.0000
vn 0.0000 -1.0000 0.0000
usemtl Material.003
s off
f 17//13 19//13 20//13 18//13
f 19//14 23//14 24//14 20//14
f 23//15 21//15 22//15 24//15
f 21//16 17//16 18//16 22//16
f 19//17 17//17 21//17 23//17
f 24//18 22//18 18//18 20//18
o Cube
v 0.737973 -0.050227 -2.033153
v 0.737973 -0.050227 2.033154
v -1.146189 -0.050227 2.033153
v -1.146188 -0.050227 -2.033154
v 0.737974 0.050227 -2.033152
v 0.737973 0.050227 2.033155
v -1.146189 0.050227 2.033153
v -1.146189 0.050227 -2.033154
vn 0.0000 -1.0000 0.0000
vn 0.0000 1.0000 0.0000
vn 1.0000 0.0000 0.0000
vn -0.0000 -0.0000 1.0000
vn -1.0000 -0.0000 -0.0000
vn 0.0000 0.0000 -1.0000
usemtl Material
s off
f 25//19 26//19 27//19 28//19
f 29//20 32//20 31//20 30//20
f 25//21 29//21 30//21 26//21
f 26//22 30//22 31//22 27//22
f 27//23 31//23 32//23 28//23
f 29//24 25//24 28//24 32//24
o Cube.003
v -0.997955 3.200684 1.776142
v -0.997955 -0.032565 1.776142
v -0.997955 3.200684 2.030250
v -0.997955 -0.032565 2.030250
v 0.734816 2.554034 1.776142
v 0.734816 -0.032565 1.776142
v 0.734816 2.554034 2.030250
v 0.734816 -0.032565 2.030250
vn -1.0000 0.0000 0.0000
vn 0.0000 0.0000 1.0000
vn 1.0000 0.0000 0.0000
vn -0.0000 0.0000 -1.0000
vn 0.3496 0.9369 0.0000
vn 0.0000 -1.0000 0.0000
usemtl Material.004
s off
f 33//25 34//25 36//25 35//25
f 35//26 36//26 40//26 39//26
f 39//27 40//27 38//27 37//27
f 37//28 38//28 34//28 33//28
f 35//29 39//29 37//29 33//29
f 40//30 36//30 34//30 38//30
