# Blender v2.79 (sub 0) OBJ File: 'tl.blend'
# www.blender.org
mtllib tl.mtl
o Cube
v 0.186174 0.842564 -0.186174
v 0.186174 0.842564 0.186174
v -0.186174 0.842564 0.186174
v -0.186174 0.842564 -0.186174
v 0.186174 1.214913 -0.186174
v 0.186174 1.214913 0.186174
v -0.186174 1.214913 0.186174
v -0.186174 1.214913 -0.186174
v 0.186174 0.842564 -0.186174
v -0.186174 0.842564 -0.186174
v 0.186174 1.214913 -0.186174
v -0.186174 1.214913 -0.186174
v 0.186175 0.842564 -1.374915
v -0.186174 0.842564 -1.374915
v 0.186175 1.214913 -1.374915
v -0.186174 1.214913 -1.374915
v 0.186174 0.842564 1.484401
v -0.186175 0.842564 1.484401
v 0.186174 1.214912 1.484401
v -0.186175 1.214912 1.484401
vn 0.0000 -1.0000 -0.0000
vn 0.0000 1.0000 -0.0000
vn 1.0000 0.0000 0.0000
vn -1.0000 -0.0000 -0.0000
vn 0.0000 0.0000 1.0000
vn 0.0000 0.0000 -1.0000
usemtl Material
s off
f 1//1 2//1 3//1 4//1
f 5//2 8//2 7//2 6//2
f 1//3 5//3 6//3 2//3
f 3//1 2//1 17//1 18//1
f 3//4 7//4 8//4 4//4
f 1//5 4//5 10//5 9//5
f 9//1 10//1 14//1 13//1
f 5//5 1//5 9//5 11//5
f 8//5 5//5 11//5 12//5
f 4//5 8//5 12//5 10//5
f 15//6 13//6 14//6 16//6
f 12//2 11//2 15//2 16//2
f 11//3 9//3 13//3 15//3
f 10//4 12//4 16//4 14//4
f 17//5 19//5 20//5 18//5
f 6//2 7//2 20//2 19//2
f 7//4 3//4 18//4 20//4
f 2//3 6//3 19//3 17//3
o Cube.001
v 0.186174 0.838800 -1.589005
v 0.186174 0.838800 -1.540287
v -0.186174 0.838800 -1.540287
v -0.186174 0.838800 -1.589005
v 0.186174 1.444011 -1.589005
v 0.186174 1.444011 -1.540287
v -0.186174 1.444011 -1.540287
v -0.186174 1.444011 -1.589005
v 0.186174 0.838800 -1.589005
v -0.186174 0.838800 -1.589005
v 0.186174 1.444011 -1.589005
v -0.186174 1.444011 -1.589005
v 0.186175 0.838800 -1.744540
v -0.186174 0.838800 -1.744540
v 0.186175 1.444012 -1.744540
v -0.186174 1.444012 -1.744540
v 0.186174 0.838800 -1.370428
v -0.186175 0.838800 -1.370428
v 0.186174 1.444011 -1.370428
v -0.186175 1.444011 -1.370428
vn 0.0000 -1.0000 -0.0000
vn 0.0000 1.0000 0.0000
vn 1.0000 0.0000 0.0000
vn -1.0000 -0.0000 -0.0000
vn 0.0000 0.0000 1.0000
vn 0.0000 0.0000 -1.0000
usemtl Material.001
s off
f 21//7 22//7 23//7 24//7
f 25//8 28//8 27//8 26//8
f 21//9 25//9 26//9 22//9
f 23//7 22//7 37//7 38//7
f 23//10 27//10 28//10 24//10
f 21//11 24//11 30//11 29//11
f 29//7 30//7 34//7 33//7
f 25//11 21//11 29//11 31//11
f 28//11 25//11 31//11 32//11
f 24//11 28//11 32//11 30//11
f 35//12 33//12 34//12 36//12
f 32//8 31//8 35//8 36//8
f 31//9 29//9 33//9 35//9
f 30//10 32//10 36//10 34//10
f 37//11 39//11 40//11 38//11
f 26//8 27//8 40//8 39//8
f 27//10 23//10 38//10 40//10
f 22//9 26//9 39//9 37//9
o Cube.002
v 0.186174 0.849812 1.630275
v 0.186174 0.849812 1.678993
v -0.186174 0.849812 1.678993
v -0.186174 0.849812 1.630275
v 0.186174 1.455024 1.630275
v 0.186174 1.455024 1.678993
v -0.186174 1.455024 1.678993
v -0.186174 1.455024 1.630275
v 0.186174 0.849812 1.630275
v -0.186174 0.849812 1.630275
v 0.186174 1.455024 1.630275
v -0.186174 1.455024 1.630275
v 0.186175 0.849813 1.474740
v -0.186174 0.849813 1.474740
v 0.186175 1.455024 1.474740
v -0.186174 1.455024 1.474740
v 0.186174 0.849812 1.848853
v -0.186175 0.849812 1.848853
v 0.186174 1.455024 1.848853
v -0.186175 1.455024 1.848853
vn 0.0000 -1.0000 -0.0000
vn 0.0000 1.0000 0.0000
vn 1.0000 0.0000 0.0000
vn -1.0000 -0.0000 -0.0000
vn 0.0000 0.0000 1.0000
vn 0.0000 0.0000 -1.0000
usemtl Material.002
s off
f 41//13 42//13 43//13 44//13
f 45//14 48//14 47//14 46//14
f 41//15 45//15 46//15 42//15
f 43//13 42//13 57//13 58//13
f 43//16 47//16 48//16 44//16
f 41//17 44//17 50//17 49//17
f 49//13 50//13 54//13 53//13
f 45//17 41//17 49//17 51//17
f 48//17 45//17 51//17 52//17
f 44//17 48//17 52//17 50//17
f 55//18 53//18 54//18 56//18
f 52//14 51//14 55//14 56//14
f 51//15 49//15 53//15 55//15
f 50//16 52//16 56//16 54//16
f 57//17 59//17 60//17 58//17
f 46//14 47//14 60//14 59//14
f 47//16 43//16 58//16 60//16
f 42//15 46//15 59//15 57//15
